<?xml version="1.0" encoding="utf-8"?><svg viewBox="0 0 423 423" xmlns="http://www.w3.org/2000/svg" xmlns:xlink="http://www.w3.org/1999/xlink"><style>:root>svg{display:none}:root>svg:target{display:block}</style><svg fill="none" viewBox="0 0 14 15" id="icon-error" xmlns="http://www.w3.org/2000/svg"><path fill="#F04438" d="M7 .469c3.719 0 6.781 3.062 6.781 6.781 0 3.746-3.062 6.781-6.781 6.781A6.78 6.78 0 0 1 .219 7.25C.219 3.531 3.254.469 7 .469Zm0 12.25a5.467 5.467 0 0 0 5.469-5.469c0-3.008-2.461-5.469-5.469-5.469A5.467 5.467 0 0 0 1.531 7.25 5.45 5.45 0 0 0 7 12.719Zm0-9.242c.629 0 1.148.52 1.148 1.148 0 .656-.52 1.148-1.148 1.148a1.121 1.121 0 0 1-1.148-1.148c0-.629.492-1.148 1.148-1.148Zm1.531 6.945a.332.332 0 0 1-.328.328H5.797a.316.316 0 0 1-.328-.328v-.656c0-.164.136-.329.328-.329h.328v-1.75h-.328a.316.316 0 0 1-.328-.328v-.656c0-.164.136-.328.328-.328h1.75c.164 0 .328.164.328.328v2.734h.328c.164 0 .328.165.328.329v.656Z"/></svg><svg fill="none" viewBox="0 0 16 17" id="icon-info" xmlns="http://www.w3.org/2000/svg"><path fill="#75B0DE" d="M15.75 2.063v12.374c0 .95-.773 1.688-1.688 1.688H1.688c-.95 0-1.688-.738-1.688-1.688V2.063C0 1.147.738.375 1.688.375h12.374a1.71 1.71 0 0 1 1.688 1.688Zm-1.688 12.164V2.273a.227.227 0 0 0-.21-.21H1.898c-.14 0-.21.105-.21.21v11.954c0 .14.07.21.21.21h11.954c.105 0 .21-.07.21-.21ZM7.875 3.398c.809 0 1.477.668 1.477 1.477 0 .844-.668 1.477-1.477 1.477-.844 0-1.477-.633-1.477-1.477 0-.809.633-1.477 1.477-1.477Zm1.969 8.93a.428.428 0 0 1-.422.422H6.328a.406.406 0 0 1-.422-.422v-.844c0-.21.176-.421.422-.421h.422v-2.25h-.422a.406.406 0 0 1-.422-.422v-.844c0-.211.176-.422.422-.422h2.25c.211 0 .422.21.422.422v3.516h.422c.21 0 .422.21.422.421v.844Z"/></svg><svg fill="none" viewBox="0 0 20 20" id="icon-menu" xmlns="http://www.w3.org/2000/svg"><path stroke="#34302D" stroke-linecap="round" stroke-linejoin="round" stroke-width="1.5" d="M2.5 10h15m-15-5h15m-15 10h15"/></svg><svg fill="none" viewBox="0 0 20 20" id="icon-menu-close" xmlns="http://www.w3.org/2000/svg"><path stroke="#FEFEFE" stroke-linecap="round" stroke-linejoin="round" stroke-width="1.5" d="M15 5 5 15M5 5l10 10"/></svg><svg fill="none" viewBox="0 0 18 18" id="icon-moon" xmlns="http://www.w3.org/2000/svg"><path stroke="#1C1A19" stroke-linecap="round" stroke-linejoin="round" stroke-width="1.5" d="M15.913 9.664a5.556 5.556 0 1 1-7.577-7.577 6.945 6.945 0 1 0 7.577 7.577Z"/></svg><svg fill="none" viewBox="0 0 14 15" id="icon-success" xmlns="http://www.w3.org/2000/svg"><path fill="#008531" d="M7 .469c3.719 0 6.781 3.062 6.781 6.781 0 3.746-3.062 6.781-6.781 6.781A6.78 6.78 0 0 1 .219 7.25C.219 3.531 3.254.469 7 .469ZM7 1.78a5.467 5.467 0 0 0-5.469 5.47A5.45 5.45 0 0 0 7 12.719a5.467 5.467 0 0 0 5.469-5.469c0-3.008-2.461-5.469-5.469-5.469Zm3.828 3.582c.11.11.11.328 0 .465l-4.73 4.676a.315.315 0 0 1-.465 0L3.145 7.988c-.11-.11-.11-.328 0-.465l.628-.601a.315.315 0 0 1 .465 0l1.64 1.64 3.856-3.828c.137-.136.356-.136.465 0l.63.63Z"/></svg><svg fill="none" viewBox="0 0 18 18" id="icon-sun" xmlns="http://www.w3.org/2000/svg"><path stroke="#FEFEFE" stroke-linecap="round" stroke-linejoin="round" stroke-width="1.5" d="M9 2.055v1.39m0 11.11v1.39M3.444 9H2.056m2.996-3.95-.983-.982m8.88.982.982-.982m-8.88 8.882-.982.982m8.88-.982.982.982M15.945 9h-1.39m-2.083 0a3.472 3.472 0 1 1-6.944 0 3.472 3.472 0 0 1 6.944 0Z"/></svg><svg fill="none" viewBox="0 0 13 19" id="icon-tip" xmlns="http://www.w3.org/2000/svg"><path fill="#008531" d="M6.688 3.063c.28 0 .562.28.562.562a.578.578 0 0 1-.563.563 2.243 2.243 0 0 0-2.25 2.25.578.578 0 0 1-.562.562.555.555 0 0 1-.563-.563c0-1.828 1.512-3.375 3.376-3.375ZM3.874 16.422v-1.547h5.59v1.547c0 .105-.035.21-.07.316l-.88 1.266a.512.512 0 0 1-.456.246H5.28a.512.512 0 0 1-.457-.246l-.879-1.266c-.07-.105-.07-.21-.07-.316ZM6.688.25a6.197 6.197 0 0 1 6.187 6.188c0 1.582-.598 2.988-1.547 4.078-.598.668-1.512 2.074-1.828 3.234H7.812c0-.14.036-.352.07-.492.177-.633.81-2.285 2.18-3.832.704-.844 1.126-1.899 1.126-2.989 0-2.46-2.04-4.5-4.5-4.5-2.426 0-4.536 1.934-4.5 4.5 0 1.09.386 2.145 1.09 2.989 1.406 1.582 2.003 3.199 2.179 3.832.07.176.07.351.07.492H3.84c-.317-1.16-1.23-2.566-1.828-3.234A6.138 6.138 0 0 1 .5 6.437C.5 3.168 3.066.25 6.688.25Z"/></svg><svg fill="none" viewBox="0 0 22 20" id="icon-warning" xmlns="http://www.w3.org/2000/svg"><path fill="#EA9806" d="M9.219 8.457c0-.246.176-.457.422-.457h1.933c.246 0 .422.21.422.457l-.246 3.938c0 .21-.21.386-.422.386H9.887c-.246 0-.422-.14-.422-.386l-.246-3.938Zm2.883 6.293c0 .844-.668 1.477-1.477 1.477-.844 0-1.477-.633-1.477-1.477 0-.809.633-1.477 1.477-1.477.809 0 1.477.668 1.477 1.477Zm-.036-12.656 8.438 14.66c.633 1.125-.176 2.496-1.477 2.496H2.187c-1.3 0-2.109-1.406-1.476-2.496l8.437-14.66c.633-1.125 2.286-1.09 2.918 0ZM2.363 17.28c-.105.14 0 .282.176.282h16.137c.176 0 .281-.141.176-.282L10.8 3.29c-.106-.14-.281-.14-.387 0l-8.05 13.992Z"/></svg><svg fill="none" viewBox="0 0 18 16" id="logo-frontend-mentor" xmlns="http://www.w3.org/2000/svg"><path fill="#34302D" d="M17.423 8.389a.553.553 0 0 1-.224-.048l-4.696-2.098a.547.547 0 0 1 0-.997l4.696-2.09a.549.549 0 0 1 .723.276.548.548 0 0 1-.277.72l-3.579 1.593 3.58 1.6a.546.546 0 0 1-.223 1.044Zm-6.401 7.61c-5.163 0-9.678-3.477-10.976-8.455a.547.547 0 0 1 1.059-.275 10.242 10.242 0 0 0 9.917 7.639.547.547 0 1 1 0 1.09Zm-1.885-4.532a.547.547 0 0 1-.547-.546V.547a.547.547 0 0 1 1.094 0V10.92a.547.547 0 0 1-.547.546Z"/></svg><svg fill="none" viewBox="0 0 18 17" id="logo-github" xmlns="http://www.w3.org/2000/svg"><path fill="#34302D" d="M6.195 13.503c0 .066-.066.1-.165.1-.1.032-.166-.034-.166-.1s.067-.132.166-.132.165.066.165.132Zm-1.024-.165c.033-.066.132-.099.23-.066.1.033.133.1.133.165a.159.159 0 0 1-.198.066c-.1 0-.165-.099-.165-.165Zm1.486-.033c.066-.033.166.033.166.1.033.065-.034.098-.133.131s-.198 0-.198-.066c0-.099.066-.165.165-.165ZM8.805.62c4.592 0 8.325 3.502 8.325 8.06 0 3.668-2.247 6.806-5.55 7.897-.43.099-.595-.166-.595-.397 0-.264.033-1.652.033-2.742 0-.793-.264-1.288-.562-1.553 1.85-.198 3.8-.462 3.8-3.634 0-.925-.33-1.354-.86-1.949.067-.23.364-1.09-.098-2.246-.694-.231-2.28.892-2.28.892-.66-.198-1.354-.264-2.081-.264-.694 0-1.388.066-2.048.264 0 0-1.62-1.09-2.28-.892C4.147 5.21 4.411 6.07 4.51 6.3c-.529.595-.793 1.024-.793 1.95 0 3.171 1.883 3.435 3.733 3.633-.264.232-.462.595-.528 1.124-.496.231-1.685.594-2.412-.694a1.77 1.77 0 0 0-1.288-.859c-.793 0-.034.529-.034.529.53.23.892 1.189.892 1.189.496 1.486 2.809.991 2.809.991v2.048c0 .198-.133.463-.562.397C3.023 15.485.744 12.347.744 8.679c0-4.558 3.502-8.06 8.06-8.06ZM3.948 12.017c.033-.033.1 0 .166.033.066.066.066.165.033.198-.067.033-.133 0-.199-.033-.033-.066-.066-.165 0-.198Zm-.363-.265c.033-.033.066-.033.132 0s.1.066.1.1c-.034.066-.1.066-.166.032-.066-.033-.1-.066-.066-.132Zm1.057 1.19c.066-.066.165-.033.231.033s.066.165.033.198c-.033.066-.132.033-.198-.033-.099-.066-.099-.165-.066-.198Zm-.363-.496c.066-.033.132 0 .198.066.033.066.033.165 0 .198-.066.033-.132 0-.198-.066s-.066-.165 0-.198Z"/></svg><svg fill="none" viewBox="0 0 16 16" id="logo-linkedin" xmlns="http://www.w3.org/2000/svg"><path fill="#34302D" d="M3.646 15.25H.476V5.057h3.17V15.25ZM2.044 3.694c-.989 0-1.807-.853-1.807-1.875C.237.83 1.055.012 2.044.012c1.022 0 1.84.818 1.84 1.807 0 1.022-.818 1.875-1.84 1.875ZM12.339 15.25v-4.943c0-1.193-.034-2.693-1.67-2.693-1.637 0-1.875 1.261-1.875 2.59v5.046h-3.17V5.057h3.033v1.398h.034c.443-.784 1.466-1.636 3-1.636 3.205 0 3.818 2.113 3.818 4.84v5.591h-3.17Z"/></svg><svg fill="none" viewBox="0 0 18 16" id="logo-x" xmlns="http://www.w3.org/2000/svg"><path fill="#34302D" d="m.399 0 6.6 8.825L.357 16h1.495l5.815-6.282L12.365 16h5.087l-6.971-9.321L16.663 0h-1.495L9.813 5.785 5.486 0H.399Zm2.198 1.101h2.337L15.254 14.9h-2.337L2.597 1.1Z"/></svg><svg fill="none" viewBox="0 0 423 423" id="pattern-dark" xmlns="http://www.w3.org/2000/svg"><g clip-path="url(#na)"><mask id="nb" width="423" height="423" x="0" y="0" maskUnits="userSpaceOnUse" style="mask-type:luminance"><path fill="#fff" d="M423 0H0v423h423V0Z"/></mask><g mask="url(#nb)"><path stroke="url(#nc)" d="M330.075 303.718 237.856 211.5l92.219-92.218 92.218 92.218-92.218 92.218Zm-237.15 0L.707 211.5l92.219-92.218 92.218 92.218-92.219 92.218ZM211.5 422.293l-92.218-92.218 92.218-92.219 92.218 92.219-92.218 92.218Zm0-237.149-92.218-92.219L211.5.707l92.218 92.219-92.218 92.218Z"/></g></g><defs><linearGradient id="nc" x1="289" x2="226.5" y1="37.5" y2="383" gradientUnits="userSpaceOnUse"><stop stop-color="#34302D"/><stop offset="1" stop-color="#292725" stop-opacity=".2"/></linearGradient><clipPath id="na"><path fill="#fff" d="M0 0h423v423H0z"/></clipPath></defs></svg><svg fill="none" viewBox="0 0 423 423" id="pattern-light" xmlns="http://www.w3.org/2000/svg"><g clip-path="url(#oa)"><mask id="ob" width="423" height="423" x="0" y="0" maskUnits="userSpaceOnUse" style="mask-type:luminance"><path fill="#fff" d="M423 0H0v423h423V0Z"/></mask><g mask="url(#ob)"><path stroke="url(#oc)" d="M330.075 303.718 237.856 211.5l92.219-92.218 92.218 92.218-92.218 92.218Zm-237.15 0L.707 211.5l92.219-92.218 92.218 92.218-92.219 92.218ZM211.5 422.293l-92.218-92.218 92.218-92.219 92.218 92.219-92.218 92.218Zm0-237.149-92.218-92.219L211.5.707l92.218 92.219-92.218 92.218Z"/></g></g><defs><linearGradient id="oc" x1="211.5" x2="211.5" y1="0" y2="423" gradientUnits="userSpaceOnUse"><stop stop-color="#E5E3E1"/><stop offset="1" stop-color="#EFEDEB" stop-opacity=".2"/></linearGradient><clipPath id="oa"><path fill="#fff" d="M0 0h423v423H0z"/></clipPath></defs></svg></svg>